# xmcd
# 
# Track frame offsets:
#     150
#     15118
#     30348
#     47479
#     59951
#     70203
#     79731
#     88171
#     99810
#     119226
#     132619
#     151408
#     163356
#     175164
#     185511
#     198912
#     212478
#     227754
#     239641
#     251107
# 
# Disc length: 3542
# 
# Revision: 1
# Processed by: cddbd v1.5.2PL0 Copyright (c) Steve Scherf et al.
# Submitted via: fre:ac v1.0.27
# 
DISCID=1a0dd414
DTITLE=Various Artist - Xmas Greatest [CD3)
DYEAR=2003
DGENRE=Christmas
TTITLE0=Bill Pinkney and The Original Drifters - The Little Drummer Boy
TTITLE1=Johnny Adams - Silver Bells
TTITLE2=Orchestra Tijuana - The Twelve Days Of Christmas
TTITLE3=Merle Haggard - If We Make It Through December
TTITLE4=Gene Autry - Sleigh Bells
TTITLE5=Bobby Sherman - Jingle Bell Rock
TTITLE6=Kitty Wells - Santa's On His Way
TTITLE7=Rosemary Clooney - Suzy Snowflake
TTITLE8=Glen Campbell - Have Yourself A Merry Little Christmas
TTITLE9=The Miracles - Feliz Navidad
TTITLE10=The Three Degrees - It Isn't Christmas (While You're Not Here)
TTITLE11=Frank Sinatra - O Come All Ye Faithful
TTITLE12=Brook Benton - Christmas Makes The Town
TTITLE13=The Cranberry Singers - Ding Ding, Merrily On Hign
TTITLE14=The Platters - God Rest Ye Merry Gentlemen
TTITLE15=Charles Brown - Merry Christmas Baby
TTITLE16=The 103rd Street Gospel Choir with Guest Pat Lewis - The Most Beautiful Night Of The Year
TTITLE17=Bing Crosby - Happy Holidays
TTITLE18=Nat King Cole - A House With Love At Christmas
TTITLE19=The Gino Marinello Orchestra - Do They Know It's Christmas
EXTD=
EXTT0=
EXTT1=
EXTT2=
EXTT3=
EXTT4=
EXTT5=
EXTT6=
EXTT7=
EXTT8=
EXTT9=
EXTT10=
EXTT11=
EXTT12=
EXTT13=
EXTT14=
EXTT15=
EXTT16=
EXTT17=
EXTT18=
EXTT19=
PLAYORDER=
